<?xml version="1.0" encoding="UTF-8"?>
<!DOCTYPE svg PUBLIC "-//W3C//DTD SVG 1.1//EN" "http://www.w3.org/Graphics/SVG/1.1/DTD/svg11.dtd">
<!-- Creator: CorelDRAW X7 -->
<svg xmlns="http://www.w3.org/2000/svg" xml:space="preserve" width="8in" height="8in" version="1.1" style="shape-rendering:geometricPrecision; text-rendering:geometricPrecision; image-rendering:optimizeQuality; fill-rule:evenodd; clip-rule:evenodd"
viewBox="0 0 8000 8000"
 xmlns:xlink="http://www.w3.org/1999/xlink">
 <defs>
  <style type="text/css">
   <![CDATA[
    .fil0 {fill:#FFD64F}
    .fil3 {fill:#00AFEF}
    .fil2 {fill:#FEFEFE;fill-rule:nonzero}
    .fil4 {fill:#373435;fill-rule:nonzero}
    .fil1 {fill:#AB863D;fill-rule:nonzero}
   ]]>
  </style>
 </defs>
 <g id="Layer_x0020_1">
  <metadata id="CorelCorpID_0Corel-Layer"/>
  <g id="_1063805232">
   <path class="fil0" d="M3065 3233c414,0 749,335 749,749 0,414 -335,749 -749,749 -414,0 -749,-335 -749,-749 0,-414 335,-749 749,-749z"/>
   <path class="fil1" d="M3031 4284l0 -457c-85,65 -100,67 -130,67 -14,0 -26,-6 -37,-17 -11,-11 -17,-24 -17,-39 0,-17 6,-29 16,-37 136,-116 72,-62 214,-180 6,-6 16,-10 32,-10 18,0 32,7 43,21 11,14 16,33 16,57l0 575c0,67 -23,101 -69,101 -21,0 -37,-7 -49,-21 -13,-13 -19,-34 -19,-60z"/>
   <path class="fil2" d="M2996 4277l0 -457c-85,65 -100,68 -130,68 -14,0 -26,-6 -37,-17 -11,-11 -16,-24 -16,-39 0,-17 5,-29 16,-38 135,-115 71,-62 213,-180 6,-5 17,-9 32,-9 18,0 32,7 43,21 11,13 16,32 16,56l0 575c0,68 -23,101 -69,101 -20,0 -37,-6 -49,-20 -13,-14 -19,-34 -19,-61z"/>
   <path class="fil3" d="M1913 3829l247 -195c64,-44 104,-25 137,39l151 266c-12,43 -60,47 -93,7 -32,-41 -65,-76 -99,-112 -7,31 -12,63 -16,95 -46,450 281,853 731,900 317,32 611,-120 773,-370 69,-101 113,-212 134,-337 2,-11 1,-16 3,-27 1,-11 3,-14 3,-26l4 -54c0,-8 0,-15 0,-25 -5,-152 -35,-288 -115,-421 -50,-84 -111,-162 -173,-216 -44,-37 -138,-108 -192,-129 9,-3 10,-1 31,10 11,6 20,11 30,16 20,11 40,24 61,38 143,96 243,225 312,380 65,146 84,324 57,481 -2,11 -4,20 -6,31 -2,13 -7,22 -6,34 17,-14 31,-165 32,-182 8,-135 -18,-263 -81,-388 -9,-19 -17,-32 -27,-51l-31 -52c-24,-37 -47,-71 -73,-103 -65,-80 -161,-150 -246,-196 -52,-28 -99,-47 -153,-65l-113 -29c-40,-6 -97,-13 -137,-14l-48 -1c14,-6 26,0 39,-5 -12,-5 -9,0 -4,-6l-14 -1c-68,2 -137,12 -204,29 -12,4 -21,10 -31,6 14,-9 64,-20 81,-24l82 -16c-10,-3 -98,12 -105,15l-3 -4c15,-11 28,-7 43,-18l-9 0c-38,5 -129,35 -165,50 -52,21 -98,45 -150,78l-1 -5c140,-89 306,-140 458,-144 32,0 22,-3 38,-4 25,-1 48,2 73,1 -8,-10 -3,-4 -3,-8 -11,-4 -73,-5 -90,-5 -56,1 -131,6 -186,19l-97 23c24,-16 149,-40 187,-43 57,-4 122,-10 180,-3 44,5 90,7 132,20 6,1 9,2 15,3 43,7 131,39 170,55 44,17 100,46 138,71 18,12 36,23 54,37l55 42c-13,-17 -46,-40 -63,-53 -58,-47 -164,-102 -231,-127l-104 -34 -107 -22c-7,-1 -9,0 -17,-1 -106,-11 -130,-9 -235,-1 -63,5 -168,34 -228,57 -28,11 -135,60 -160,78l0 -1c174,-110 386,-165 607,-142 525,55 906,524 852,1048 -55,525 -524,906 -1048,852 -525,-55 -906,-524 -852,-1048 3,-30 8,-59 14,-88 -58,29 -126,64 -140,65 -33,2 -71,-23 -68,-50zm342 4l-2 -1 -1 5c1,-1 2,-2 3,-4z"/>
   <path class="fil4" d="M4274 3404c0,22 3,43 11,62 7,19 18,37 32,52 16,18 34,31 54,40 20,9 41,14 62,14 45,0 83,-16 114,-48 30,-32 46,-72 46,-120 0,-44 -16,-81 -47,-112 -30,-31 -67,-46 -111,-46 -45,0 -83,15 -114,46 -32,31 -47,68 -47,112zm-106 4c0,-28 4,-55 11,-80 8,-25 19,-49 34,-71 25,-37 57,-65 96,-86 38,-20 80,-30 126,-30 34,0 67,7 99,20 31,13 60,32 85,57 25,26 45,55 58,87 14,32 21,65 21,101 0,36 -7,71 -19,103 -13,33 -32,61 -56,86 -25,26 -54,46 -87,60 -32,14 -67,21 -103,21 -38,0 -73,-6 -106,-20 -32,-14 -61,-34 -86,-61 -24,-25 -42,-54 -54,-86 -13,-31 -19,-65 -19,-101zm721 258l-99 0 0 -515 96 0 213 329 0 -329 98 0 0 515 -93 0 -215 -339 0 339zm702 0l-278 0 0 -515 278 0 0 91 -178 0 0 117 178 0 0 89 -178 0 0 128 178 0 0 90zm-1301 589l-99 0 0 -515 133 0 131 374 130 -374 134 0 0 515 -100 0 4 -374 -130 374 -76 0 -131 -374 4 374zm544 0l0 -515 101 0 0 515 -101 0zm316 0l-100 0 0 -515 96 0 213 329 0 -329 99 0 0 515 -94 0 -214 -339 0 339zm592 -89c56,0 97,-13 123,-41 27,-27 40,-70 40,-128 0,-54 -14,-95 -43,-125 -29,-30 -70,-45 -122,-45l-65 0 0 339 67 0zm6 89l-175 0 0 -515 172 0c47,0 84,4 113,14 28,9 53,25 76,47 24,24 43,52 55,86 13,33 19,71 19,113 0,46 -9,88 -26,125 -18,37 -43,67 -76,91 -19,14 -40,24 -64,30 -23,6 -54,9 -94,9zm-1557 588l0 -515 101 0 0 515 -101 0zm316 0l-100 0 0 -515 96 0 213 329 0 -329 98 0 0 515 -93 0 -214 -339 0 339zm592 -88c56,0 97,-14 123,-41 27,-28 40,-71 40,-129 0,-53 -15,-95 -43,-125 -29,-29 -70,-44 -122,-44l-65 0 0 339 67 0zm6 88l-175 0 0 -515 172 0c47,0 84,5 113,14 28,10 53,25 76,48 24,23 43,52 55,85 13,34 19,71 19,113 0,47 -9,88 -26,125 -18,37 -43,68 -76,92 -19,13 -40,23 -64,29 -23,6 -54,9 -94,9zm352 0l0 -515 100 0 0 515 -100 0zm448 -203l-61 -166 -62 166 123 0zm-158 95l-40 108 -104 0 200 -515 87 0 197 515 -108 0 -41 -108 -191 0z"/>
  </g>
 </g>
</svg>
